<?xml version="1.0" standalone="no"?>
<!DOCTYPE svg PUBLIC "-//W3C//DTD SVG 20010904//EN"
 "http://www.w3.org/TR/2001/REC-SVG-20010904/DTD/svg10.dtd">
<svg version="1.0" xmlns="http://www.w3.org/2000/svg"
 width="720.000000pt" height="720.000000pt" viewBox="0 0 720.000000 720.000000"
 preserveAspectRatio="xMidYMid meet">
<metadata>
Created by potrace 1.14, written by Peter Selinger 2001-2017
</metadata>
<g transform="translate(0.000000,720.000000) scale(0.100000,-0.100000)"
fill="#000000" stroke="none">
<path d="M3607 7184 c-2 -2 -2 -1246 0 -2764 1 -1518 1 -2760 -1 -2760 -2 0
-24 8 -48 19 -105 44 -215 77 -303 89 -81 11 -322 4 -395 -11 -107 -23 -147
-34 -215 -59 -44 -16 -123 -50 -175 -76 -93 -46 -297 -168 -324 -194 -7 -7
-31 -26 -52 -43 -42 -32 -164 -152 -204 -201 -174 -210 -248 -461 -199 -673
29 -123 87 -222 188 -319 73 -70 145 -112 256 -147 78 -25 107 -29 225 -31 74
-2 158 1 185 6 133 23 199 37 230 50 11 4 49 18 85 30 113 39 334 152 398 205
10 8 44 34 77 59 58 43 181 159 238 225 95 108 229 388 262 546 6 26 12 1591
14 3518 l1 577 23 0 c61 0 256 -70 420 -152 129 -64 135 -67 229 -125 313
-193 474 -379 629 -728 17 -38 32 -74 33 -80 1 -5 4 -14 8 -20 12 -21 67 -204
91 -305 45 -188 59 -308 58 -490 0 -74 -3 -146 -5 -159 -3 -14 -8 -47 -11 -74
-3 -28 -8 -53 -10 -57 -2 -4 -7 -22 -10 -41 -27 -153 -124 -437 -319 -932 -47
-120 -89 -229 -92 -243 -6 -23 -5 -24 17 -13 23 10 110 131 125 174 5 11 17
36 28 55 92 156 300 723 370 1008 19 75 37 151 41 167 5 17 9 37 10 45 1 8 6
31 9 50 40 199 40 503 1 700 -3 14 -7 36 -10 49 -62 328 -246 678 -572 1086
-70 88 -137 169 -148 181 -11 11 -40 45 -65 74 -25 29 -54 63 -65 74 -56 58
-278 314 -352 406 -79 99 -223 301 -223 314 0 4 -10 23 -23 44 -52 82 -129
299 -151 422 -2 14 -7 36 -10 50 -20 88 -29 192 -30 342 l0 138 -118 -1 c-64
-1 -119 -3 -121 -5z"/>
</g>
</svg>
